<mxfile host="app.diagrams.net" modified="2020-08-31T19:10:18.663Z" agent="5.0 (Windows)" etag="UgWg6ziuhQRNsRclsx8q" version="13.6.5" type="github">
  <diagram id="m7Rq0othtwe6MYNRoLJ3" name="Page-1">
    <mxGraphModel dx="1886" dy="1761" grid="1" gridSize="10" guides="1" tooltips="1" connect="1" arrows="1" fold="1" page="1" pageScale="1" pageWidth="850" pageHeight="1100" math="0" shadow="0">
      <root>
        <mxCell id="0" />
        <mxCell id="1" parent="0" />
        <mxCell id="T9Dtz7ng8269gEaztBPX-40" value="" style="rounded=0;whiteSpace=wrap;html=1;fillColor=#d5e8d4;strokeColor=#82b366;" vertex="1" parent="1">
          <mxGeometry y="280" width="830" height="140" as="geometry" />
        </mxCell>
        <mxCell id="T9Dtz7ng8269gEaztBPX-5" value="" style="rounded=0;whiteSpace=wrap;html=1;fillColor=#ffe6cc;strokeColor=#d79b00;" vertex="1" parent="1">
          <mxGeometry y="-400" width="780" height="670" as="geometry" />
        </mxCell>
        <mxCell id="T9Dtz7ng8269gEaztBPX-8" value="" style="edgeStyle=orthogonalEdgeStyle;rounded=0;orthogonalLoop=1;jettySize=auto;html=1;" edge="1" parent="1" source="T9Dtz7ng8269gEaztBPX-1" target="T9Dtz7ng8269gEaztBPX-6">
          <mxGeometry relative="1" as="geometry" />
        </mxCell>
        <mxCell id="T9Dtz7ng8269gEaztBPX-1" value="&lt;span lang=&quot;EN-GB&quot;&gt;PPMto CPQ Schedule:19&lt;/span&gt;" style="rounded=1;whiteSpace=wrap;html=1;" vertex="1" parent="1">
          <mxGeometry x="10" y="80" width="130" height="60" as="geometry" />
        </mxCell>
        <mxCell id="T9Dtz7ng8269gEaztBPX-2" value="" style="html=1;verticalLabelPosition=bottom;align=center;labelBackgroundColor=#ffffff;verticalAlign=top;strokeWidth=2;strokeColor=#0080F0;shadow=0;dashed=0;shape=mxgraph.ios7.icons.gauge;" vertex="1" parent="1">
          <mxGeometry x="100" y="70" width="32.4" height="31.5" as="geometry" />
        </mxCell>
        <mxCell id="T9Dtz7ng8269gEaztBPX-3" value="Oracle PPM" style="rounded=0;whiteSpace=wrap;html=1;" vertex="1" parent="1">
          <mxGeometry x="100" y="350" width="100" height="60" as="geometry" />
        </mxCell>
        <mxCell id="T9Dtz7ng8269gEaztBPX-4" value="Oracle CPQ" style="rounded=0;whiteSpace=wrap;html=1;" vertex="1" parent="1">
          <mxGeometry x="700" y="350" width="100" height="60" as="geometry" />
        </mxCell>
        <mxCell id="T9Dtz7ng8269gEaztBPX-9" value="" style="edgeStyle=orthogonalEdgeStyle;rounded=0;orthogonalLoop=1;jettySize=auto;html=1;" edge="1" parent="1" source="T9Dtz7ng8269gEaztBPX-6" target="T9Dtz7ng8269gEaztBPX-7">
          <mxGeometry relative="1" as="geometry" />
        </mxCell>
        <mxCell id="T9Dtz7ng8269gEaztBPX-10" value="" style="edgeStyle=orthogonalEdgeStyle;rounded=0;orthogonalLoop=1;jettySize=auto;html=1;" edge="1" parent="1" source="T9Dtz7ng8269gEaztBPX-6" target="T9Dtz7ng8269gEaztBPX-3">
          <mxGeometry relative="1" as="geometry" />
        </mxCell>
        <mxCell id="T9Dtz7ng8269gEaztBPX-6" value="&lt;span title=&quot;ERPExtract (1.0)&quot; class=&quot;x2b8 x2o6&quot; style=&quot;margin-left: 20px ; max-width: 900px&quot;&gt;ERPExtract&lt;/span&gt;" style="rounded=0;whiteSpace=wrap;html=1;" vertex="1" parent="1">
          <mxGeometry x="90" y="180" width="120" height="60" as="geometry" />
        </mxCell>
        <mxCell id="T9Dtz7ng8269gEaztBPX-13" value="" style="edgeStyle=orthogonalEdgeStyle;rounded=0;orthogonalLoop=1;jettySize=auto;html=1;" edge="1" parent="1" source="T9Dtz7ng8269gEaztBPX-7" target="T9Dtz7ng8269gEaztBPX-12">
          <mxGeometry relative="1" as="geometry" />
        </mxCell>
        <mxCell id="T9Dtz7ng8269gEaztBPX-16" style="edgeStyle=orthogonalEdgeStyle;rounded=0;orthogonalLoop=1;jettySize=auto;html=1;" edge="1" parent="1" source="T9Dtz7ng8269gEaztBPX-7" target="T9Dtz7ng8269gEaztBPX-14">
          <mxGeometry relative="1" as="geometry">
            <Array as="points">
              <mxPoint x="460" y="210" />
              <mxPoint x="460" y="80" />
            </Array>
          </mxGeometry>
        </mxCell>
        <mxCell id="T9Dtz7ng8269gEaztBPX-7" value="ERPExtractCallback" style="rounded=0;whiteSpace=wrap;html=1;" vertex="1" parent="1">
          <mxGeometry x="270" y="180" width="120" height="60" as="geometry" />
        </mxCell>
        <mxCell id="T9Dtz7ng8269gEaztBPX-12" value="" style="shadow=0;dashed=0;html=1;strokeColor=none;fillColor=#4495D1;labelPosition=center;verticalLabelPosition=bottom;verticalAlign=top;align=center;outlineConnect=0;shape=mxgraph.veeam.shared_folder;" vertex="1" parent="1">
          <mxGeometry x="302.4" y="76" width="55.2" height="64" as="geometry" />
        </mxCell>
        <mxCell id="T9Dtz7ng8269gEaztBPX-14" value="" style="rounded=0;whiteSpace=wrap;html=1;" vertex="1" parent="1">
          <mxGeometry x="520" y="-370" width="230" height="460" as="geometry" />
        </mxCell>
        <mxCell id="T9Dtz7ng8269gEaztBPX-17" value="OIC Shared Folder " style="text;html=1;strokeColor=none;fillColor=none;align=center;verticalAlign=middle;whiteSpace=wrap;rounded=0;" vertex="1" parent="1">
          <mxGeometry x="270" y="50" width="40" height="20" as="geometry" />
        </mxCell>
        <mxCell id="T9Dtz7ng8269gEaztBPX-18" value="(File Location ,FileName)" style="text;html=1;strokeColor=none;fillColor=none;spacing=5;spacingTop=-20;whiteSpace=wrap;overflow=hidden;rounded=0;" vertex="1" parent="1">
          <mxGeometry x="420" y="110" width="150" height="40" as="geometry" />
        </mxCell>
        <mxCell id="T9Dtz7ng8269gEaztBPX-20" value="&lt;div&gt;&lt;br&gt;&lt;/div&gt;&lt;div&gt;&lt;br&gt;&lt;/div&gt;&lt;div&gt;&lt;br&gt;&lt;/div&gt;&lt;div&gt;&lt;br&gt;&lt;/div&gt;&lt;div&gt;&lt;img src=&quot;data:image/png;base64,iVBORw0KGgoAAAANSUhEUgAAADIAAAAiCAYAAAAd6YoqAAACjUlEQVRYhd2Yz2saURDH8x95CwSEHATBo5f01HsFCVEaMEEPSiM1BNkIak0LIhG1CqUGEXJQ68m4DZhLMZuToI2L1G7wZ2/fHmRljRrf6j4lOzAg6743+2Fm3sybLaxBsj9uwIRT8F9+Q7PVpmJji8quz6TZaoMJp3D5/ZqaDaogHN9AjC3AnU3gDfMB776cI8YWwPENxW0pDsLxdViSIRgDTmg9VmhcpinVeqwwBpywJEPg+LoidhUDEfpdmON+6Ly2mR8/T3VeG8xxP4R+dyX7ioDkqhUYA05ZAM/VGHAiV61sDiTGFqBnjleCEFXPHCPGFtYPkqtWFIOQwizjmaVBhH535XB6Kczk5szSIOa4nwqEqOa4nz4Ix9dln05yVee1yTqalwKxJEPEH7Tt3oeeOYLBZ8fu2XtZMJZkiC4IaW5Ey/mptb+FP9i7OCHOFWogHN+YW7EXQUTLeXB8HZ3hAAaffeEeWo+VuJ2RDRJjC0ThJMrVXWn8W+MyIVjMjJ+TeIW0rsgGcWcTC43rmSMAIw9IvSMF6QwHRCDubIIOiCMdWWjc4LOPQG5yEyDaU+tEyJGAONIROiAkHtk9Oxy/n5aEllSCxcxmPUKSIxqXCY9P0zdB0SOn1yn8rHFEpxe1HCE9tfYuTtD9N5hYe9+sw5GO4L45KnSd4QAHXz9t5tQCyOuIwWfH1V1pDBQsZhAt53FbewAAPD61cVt7wLZ7f+Z6qnUEkFfZ56kI9tI71Cu7Er3WIpC19FrA6t2vwWfHzseDuf+vpfsFVHQfAVRyQxRFFXd2UVQxRRFFFXMtqbz6SeMskc5+3wY8OIx/fj2z33nChFMoVX5R2189IL1eD+vQJt/CX0Ggtv9/eshTWt8gvDAAAAAASUVORK5CYII=&quot; alt=&quot;&quot;&gt;&lt;/div&gt;" style="rounded=1;whiteSpace=wrap;html=1;fillColor=#d0cee2;strokeColor=#56517e;" vertex="1" parent="1">
          <mxGeometry x="580" y="-360" width="110" height="170" as="geometry" />
        </mxCell>
        <mxCell id="T9Dtz7ng8269gEaztBPX-31" value="" style="endArrow=classic;html=1;" edge="1" parent="1" source="T9Dtz7ng8269gEaztBPX-12">
          <mxGeometry width="50" height="50" relative="1" as="geometry">
            <mxPoint x="400" y="-60" as="sourcePoint" />
            <mxPoint x="570" y="-340" as="targetPoint" />
            <Array as="points">
              <mxPoint x="329" y="-340" />
              <mxPoint x="320" y="-340" />
              <mxPoint x="570" y="-340" />
            </Array>
          </mxGeometry>
        </mxCell>
        <mxCell id="T9Dtz7ng8269gEaztBPX-34" value="Read File" style="text;html=1;strokeColor=none;fillColor=none;align=center;verticalAlign=middle;whiteSpace=wrap;rounded=0;" vertex="1" parent="1">
          <mxGeometry x="380" y="-340" width="40" height="20" as="geometry" />
        </mxCell>
        <mxCell id="T9Dtz7ng8269gEaztBPX-36" style="edgeStyle=orthogonalEdgeStyle;rounded=0;orthogonalLoop=1;jettySize=auto;html=1;" edge="1" parent="1" source="T9Dtz7ng8269gEaztBPX-35" target="T9Dtz7ng8269gEaztBPX-4">
          <mxGeometry relative="1" as="geometry" />
        </mxCell>
        <mxCell id="T9Dtz7ng8269gEaztBPX-35" value="Rest Adapter Invoking CPQ Transaction Line" style="rounded=1;whiteSpace=wrap;html=1;" vertex="1" parent="1">
          <mxGeometry x="580" y="30" width="110" height="40" as="geometry" />
        </mxCell>
        <mxCell id="T9Dtz7ng8269gEaztBPX-37" value="PPM to CPQ UpdateQuoteLine:19" style="text;html=1;strokeColor=none;fillColor=none;align=center;verticalAlign=middle;whiteSpace=wrap;rounded=0;" vertex="1" parent="1">
          <mxGeometry x="510" y="-390" width="40" height="20" as="geometry" />
        </mxCell>
        <mxCell id="T9Dtz7ng8269gEaztBPX-39" value="Scope : Traverse Over Payload " style="rounded=0;whiteSpace=wrap;html=1;" vertex="1" parent="1">
          <mxGeometry x="580" y="-170" width="120" height="60" as="geometry" />
        </mxCell>
        <mxCell id="T9Dtz7ng8269gEaztBPX-41" value="Oracle SAAS" style="text;html=1;strokeColor=none;fillColor=none;align=center;verticalAlign=middle;whiteSpace=wrap;rounded=0;" vertex="1" parent="1">
          <mxGeometry x="30" y="300" width="40" height="20" as="geometry" />
        </mxCell>
        <mxCell id="T9Dtz7ng8269gEaztBPX-42" value="Oracle PAAS -OIC" style="text;html=1;strokeColor=none;fillColor=none;align=center;verticalAlign=middle;whiteSpace=wrap;rounded=0;" vertex="1" parent="1">
          <mxGeometry x="10" y="-390" width="60" height="20" as="geometry" />
        </mxCell>
        <mxCell id="T9Dtz7ng8269gEaztBPX-43" value="1" style="ellipse;whiteSpace=wrap;html=1;aspect=fixed;strokeWidth=2;fontFamily=Tahoma;spacingBottom=4;spacingRight=2;strokeColor=#d3d3d3;" vertex="1" parent="1">
          <mxGeometry x="140" y="140" width="20" height="20" as="geometry" />
        </mxCell>
        <mxCell id="T9Dtz7ng8269gEaztBPX-44" value="2" style="ellipse;whiteSpace=wrap;html=1;aspect=fixed;strokeWidth=2;fontFamily=Tahoma;spacingBottom=4;spacingRight=2;strokeColor=#d3d3d3;" vertex="1" parent="1">
          <mxGeometry x="230" y="190" width="20" height="20" as="geometry" />
        </mxCell>
        <mxCell id="T9Dtz7ng8269gEaztBPX-45" value="3" style="ellipse;whiteSpace=wrap;html=1;aspect=fixed;strokeWidth=2;fontFamily=Tahoma;spacingBottom=4;spacingRight=2;strokeColor=#d3d3d3;" vertex="1" parent="1">
          <mxGeometry x="338" y="160" width="20" height="20" as="geometry" />
        </mxCell>
        <mxCell id="T9Dtz7ng8269gEaztBPX-46" value="4" style="ellipse;whiteSpace=wrap;html=1;aspect=fixed;strokeWidth=2;fontFamily=Tahoma;spacingBottom=4;spacingRight=2;strokeColor=#d3d3d3;" vertex="1" parent="1">
          <mxGeometry x="460" y="170" width="20" height="20" as="geometry" />
        </mxCell>
        <mxCell id="T9Dtz7ng8269gEaztBPX-49" value="5" style="ellipse;whiteSpace=wrap;html=1;aspect=fixed;strokeWidth=2;fontFamily=Tahoma;spacingBottom=4;spacingRight=2;strokeColor=#d3d3d3;" vertex="1" parent="1">
          <mxGeometry x="355" y="-330" width="25" height="25" as="geometry" />
        </mxCell>
        <mxCell id="T9Dtz7ng8269gEaztBPX-53" value="If ERROR " style="rhombus;whiteSpace=wrap;html=1;" vertex="1" parent="1">
          <mxGeometry x="595" y="-90" width="80" height="80" as="geometry" />
        </mxCell>
        <mxCell id="T9Dtz7ng8269gEaztBPX-56" value="Scope: file Read" style="text;html=1;strokeColor=none;fillColor=none;align=center;verticalAlign=middle;whiteSpace=wrap;rounded=0;" vertex="1" parent="1">
          <mxGeometry x="580" y="-360" width="100" height="20" as="geometry" />
        </mxCell>
        <mxCell id="T9Dtz7ng8269gEaztBPX-57" value="FTP Read File" style="rounded=0;whiteSpace=wrap;html=1;" vertex="1" parent="1">
          <mxGeometry x="605" y="-330" width="60" height="40" as="geometry" />
        </mxCell>
        <mxCell id="T9Dtz7ng8269gEaztBPX-58" value="" style="rounded=0;whiteSpace=wrap;html=1;fillColor=#fad9d5;strokeColor=#ae4132;" vertex="1" parent="1">
          <mxGeometry x="810" y="-390" width="530" height="360" as="geometry" />
        </mxCell>
        <mxCell id="T9Dtz7ng8269gEaztBPX-59" value="&lt;b&gt;Global Error Handler&lt;/b&gt;" style="text;html=1;strokeColor=none;fillColor=none;align=center;verticalAlign=middle;whiteSpace=wrap;rounded=0;" vertex="1" parent="1">
          <mxGeometry x="810" y="-390" width="260" height="20" as="geometry" />
        </mxCell>
        <mxCell id="T9Dtz7ng8269gEaztBPX-65" value="" style="edgeStyle=orthogonalEdgeStyle;rounded=0;orthogonalLoop=1;jettySize=auto;html=1;" edge="1" parent="1" source="T9Dtz7ng8269gEaztBPX-60" target="T9Dtz7ng8269gEaztBPX-61">
          <mxGeometry relative="1" as="geometry" />
        </mxCell>
        <mxCell id="T9Dtz7ng8269gEaztBPX-60" value="If Error Code Starts=&quot;retry&quot;" style="rhombus;whiteSpace=wrap;html=1;" vertex="1" parent="1">
          <mxGeometry x="820" y="-340" width="120" height="120" as="geometry" />
        </mxCell>
        <mxCell id="T9Dtz7ng8269gEaztBPX-66" value="" style="edgeStyle=orthogonalEdgeStyle;rounded=0;orthogonalLoop=1;jettySize=auto;html=1;" edge="1" parent="1" source="T9Dtz7ng8269gEaztBPX-61" target="T9Dtz7ng8269gEaztBPX-62">
          <mxGeometry relative="1" as="geometry" />
        </mxCell>
        <mxCell id="T9Dtz7ng8269gEaztBPX-61" value="Retry Framework " style="shape=parallelogram;perimeter=parallelogramPerimeter;whiteSpace=wrap;html=1;fixedSize=1;" vertex="1" parent="1">
          <mxGeometry x="1000" y="-297.5" width="120" height="35" as="geometry" />
        </mxCell>
        <mxCell id="T9Dtz7ng8269gEaztBPX-69" value="" style="edgeStyle=orthogonalEdgeStyle;rounded=0;orthogonalLoop=1;jettySize=auto;html=1;" edge="1" parent="1" source="T9Dtz7ng8269gEaztBPX-62" target="T9Dtz7ng8269gEaztBPX-63">
          <mxGeometry relative="1" as="geometry" />
        </mxCell>
        <mxCell id="T9Dtz7ng8269gEaztBPX-62" value="if Number of Retries = Allowed Attempts " style="rhombus;whiteSpace=wrap;html=1;" vertex="1" parent="1">
          <mxGeometry x="1160" y="-350" width="140" height="140" as="geometry" />
        </mxCell>
        <mxCell id="T9Dtz7ng8269gEaztBPX-72" style="edgeStyle=orthogonalEdgeStyle;rounded=0;orthogonalLoop=1;jettySize=auto;html=1;entryX=0.5;entryY=1;entryDx=0;entryDy=0;" edge="1" parent="1" source="T9Dtz7ng8269gEaztBPX-63" target="T9Dtz7ng8269gEaztBPX-71">
          <mxGeometry relative="1" as="geometry" />
        </mxCell>
        <mxCell id="T9Dtz7ng8269gEaztBPX-63" value="Generic Error Handler " style="shape=parallelogram;perimeter=parallelogramPerimeter;whiteSpace=wrap;html=1;fixedSize=1;" vertex="1" parent="1">
          <mxGeometry x="1000" y="-165" width="180" height="50" as="geometry" />
        </mxCell>
        <mxCell id="T9Dtz7ng8269gEaztBPX-67" value="True" style="text;html=1;strokeColor=none;fillColor=none;align=center;verticalAlign=middle;whiteSpace=wrap;rounded=0;" vertex="1" parent="1">
          <mxGeometry x="950" y="-305" width="40" height="20" as="geometry" />
        </mxCell>
        <mxCell id="T9Dtz7ng8269gEaztBPX-68" value="True" style="text;html=1;strokeColor=none;fillColor=none;align=center;verticalAlign=middle;whiteSpace=wrap;rounded=0;rotation=0;" vertex="1" parent="1">
          <mxGeometry x="1240" y="-200" width="40" height="20" as="geometry" />
        </mxCell>
        <mxCell id="T9Dtz7ng8269gEaztBPX-71" value="" style="shape=image;verticalLabelPosition=bottom;labelBackgroundColor=#ffffff;verticalAlign=top;aspect=fixed;imageAspect=0;image=data:image/png,iVBORw0KGgoAAAANSUhEUgAAAEEAAAA8CAYAAAA5S9daAAAgAElEQVRogaW7d3gcx5nui732rs+e3XN3z9k9Xq0sS/bKsmxLttayLWc5SLZkBVphV2vLXlnRoiUrS5SYSZEmwYDACJAgCZIgGECCIBEIEMw5ZwATMYgz3T0ZM9PTsep3/ughJfna9zz33Hme96np6u6qrrcrfP3W95UFVEFAdQmoNgHN+gCqjV9z8M5fhfMBrl3n/Hl86Bq/JvCreNCulucS0FwCmleXL/4B/JqDX7PwaxYBzSCgFUuphV+zr5UZUMVHy/tQ/cESApr9kXZdbY9f81AW0hzCmkVINQmpJmHVJKQYBBWDUNwiqNqEVJuQ4hKMuYRUh7DmElItgopBUDEJazYh1foT8MoMaAaBuEUgXnpAxSUUcwkrXENQFfg1lz7Nwhc38SesEmwCcZNwvEhIMwiqFgHVIhCzCcQsgqpDSLMJa1apHQYh1SCsWvQrNmHVvvYc3jPZXl2KS1CTBDVJWUAxCcYMBhI2YbVIMJojGB0jFMsTVgr0q0VCMZ1QrEg4ZtOvWIRVg7CqE1Z0wqpBSCmW8gzCytVUJ6QV6VcLhLU8Ia1AUMkTUopENJMh1WZg1CIyYhKJmvQrhle/liegjRHQcgRU3XsZikE4phOOFQnFDMIxk37Fol81CSk6ISVHWM0RUrOE1CxhNU9E0RlQDPoVk7Ba9EhUDUKKSX/cIaRJrzcoLmUh1WQoaTOUNBiM5xlJ6YykdKJpg+FEgeFEwTtOmIzGLUbiJkNagSEtx0gyz0iyUELRQ8Is/S8wlCownMwznMoxks4xkswwGs8S03KoWh4tXkCNF1ASeUbjWUaTGUbTaaKZMaKZAqPJItG4RTRhEY2bRBNe/SOawWjcYDRZZDiZYziZZSSVKSHr5cULjMR1RuIGI0mD4ZRBWCkSiOoEFYtgzP2AhH7NRCsIdAE2UHQhZ0rGTEHBlhgCHMAW4EhwAVGCW4INWCVc/W+WYFxF6V7JR3+iVLZXjsTExUZ69QiQrgfhgis/qNeRYMmP1nf1GYpCUnCg6IDheud0CbGMQ79iEopZ3vC+OhwGNIN00cUQYEuvwaYrGY4qDI3GKBgWlitxXIlwXaRwQdogbRxhIqSDROIicSXX4OCVZ0uwhMR2S42SAikkQrgIIXBcgeV6DbNwMIWBI4tItwiWDkYRLBMpLIRwkEIghUBIiSMkDqW6EJjCwXBtDNfBdCWWiwfpvYhoxiAULRAYNQlGHQIxB1/MoWxAyZMsOFgSLClxJJi2ydlzZzh+8jipVBLLKuLYBXDzIAogciCySJlDygJSGkhhI4WLFBIpQUoQQiKkiysswEWKIjhZEFmQY0g5hhQGUto4ro0rTKQsgEghjUHEWA8yewlZDCJFDClTSHcM4egI10K6AiHAFRLLcTEsE900MB27VDc4AgwBRWA0VaQ/qtOv2EQ0Sb8qCSqCsgEtTzLvYAmwhUQgcByTnp7LnD17mkw6gWXmsYsJpKkgjShObgA7H0E6CsgU0k175EgTpFPq5BIpHSQWUhRAJMEaxh67QiFxBmPsIjgRIAVuDuHq4ObAiWFnL5CN7CB+qYbExWrSwfUUUkdwrCCgeiS5BaRwEK7EtiSm4WJZNrZj47puqae5Xo8pDZtoWqc/mi9Nlg7BmEsw5lA2ENfJ6A6mC66UgMRxTEIBHxcvnCOTiYObR+pD2InzpAI7GL3YwOilDWQGduPqfo8MkUEKHSFMhLRwhY0rTRxXByeBzAfQR/YQu7iSwJFy+k8tJhNpRRaD4MY9Iq0oVvwEsUvr6OuayIXmZ7i47Vf0dLzC0Jll5JXDIKJIOYZr6zi2hW1aWIaNY0mEuDrTeD1QSAek1yMEEEsWCI7mCcZMb2ktLfdlkUSebMHGciWuLHVl4eLv83H2zGnyYymwU9jJSwydXsO55lc5tek3nNz4DGfa3iUW2ImVDyHdNI6bx8bAxcIQRVxMXGcMURwmFd7Fpa4ZnNr0FGcanuDY2l9wZvs7jPa0gTWCsEZx9D5iVxo5u+Mdjq75D46tfIgjK+7ncO0jHFv3EoFDq8gnA9h2HtMysW0b1zIQloV0QNoS6ZTmHOl4c4jrgitAeiQEYvo1YyqkOoRU2yMho1vehCYEwhUgwNfr48TxY+SzSay8iu90C9vr3mDHol+zZf7DbJn3MFsqn6Rj/fsM9x3B0jUMe4wCBQqY5Ow8tigirCypkcscaqlg29Jn2Tj3fjbPuYc1U3/E2jm/ZHPtNEaCJ3CLw4xGDrFr8wzWLfw1a2eNY/XUn7B25s+om3o/tVMfZW3l6xzY3YSmDCMcF9cVuLYNjoO0HTAsyOchlwEjB3YRHAMcE5DEMjoBtViyRq9alBZlkUSBTMH2lh8hkaU16MqVHo6fPE4um2Qk3Mu6mj9QMeN5qqc+TdWkX1Lx3hP84bVHmf3Kr2hvqCEd70eXWYbsEU6NnEfRE5iWjpVPc/lwJ0tmvszCiU8y9+2HmffuI0x/9WEmjH+EyW88S/PGFYwlw5w8vJ3yGS9SPv15KmeOZ+mc11ix8G1qKt+iYs4rzJr2MmvrqhgdCIErsEwXxxZgWrjJBLmey4x0tDLQvInong6Sl05jJ2NII48rXGKZIn61iC9u44s7BDTPtC+LJHSyRRdX4hEgQDqSy1f6OHL8OJlUisFQH6tq57O0cjKrl8+lfnk5VXPeo3zKa8x8fTwNNQuIjfXgNy6wLbyV8rZyBvNDWG4RqzjG8X27mDflDZbMeYeayqnULppB9bwp/GH6u8yaMoH2rRvIJ4fpPX+E+hVVbFxbQ1vzJjq2b6G1qYEdW9fTtHUdO1s34us5jaGPIaS37Lq2hGwOZfceul96hTXf/wE13/kOKx5+kDW/e5HDG9aRHR3ElS6jGZ0+VadXs+iLO/jjbomEeJFM0cX5EAm4cLm3jz2HDpJIpMhl0xw/tpetTWvZuLmB+vX1LK1dTtXiSpZWLuD0uT302CdZ4a/ixY5nmX18BgNOCJMCplNgeLifjfWrWVG9iLoVK1lRu4LqRYuorqhi/apVxIcGwNIZ00Y5dvAgG9auZ3NjE1sbm2jZuIVN6xrYtLmJY8ePoOspHGliShdTgmu7FC5eYc+LL1Nz0y2s+YcbWHnjLdR994c0PPsCu5YuJd4fQiAZyej4SiT0fJiE/rhBSnexRYkE6Vln56/0sPvgQeLJNMIVDA8PsrO9hWUrVzC/uooZ88uZOHs6azaupnfsEktDixjX/jA/3HE3b115nYvyLBk0DDmGYeQ4cmA/lfMrmfn+XGaUUFm5iKMHDuAW82AWcU2DoC/IurWbWFixjIqFi1hcuYTlS2po3rqTSLgf4eglEmws2wbdINK0jfpvfZc1n/wUDX93Hbt/8FOGl9dhXrgMiQTSKOBKQTRTxK8V6dNsejWbPs3Gr5qUhTSDhO56S2TJJpYunLt4iT2HDxJPpRECiobN2fMXqamt470pk3lj4jtU1S3iWPAER/UT/Hv3r/jm3u9zx76vcvfu77M0sgSfe4UCCVxRIB6PsbWpmYnvTeXV195i2vRZ7NzZSn4sA66FFDZCOKSzeQ4dPcmCqiVMmfE+02fOZM2aeq5c6MEuFEFYCGlhOybCNiGRoGfBAlZ+4VbW/OM/seRv/m/Oj38J/AEo6mCbYJtIKYmmdfyqjj/u4NNs/KpNMG5TFop7JFgSbFte6w0XLpxnz769xJMpXAfGxnR6e0Ns395KVdUiKisX0bJrJyf6T9M8upNH9v2Crx38Fl85fgefabqRezbfy/roBjRGyVsphkcH2L9vPzXL61iwcBHLltVx9PgpUtkxz8ARDoZlkkinudTnY0f7LtZtbKJ+w0a69x1iZCiKnsvjWAbSMZGuCaZO8fwZ9j33LCtvuolNN32GRf/4j+x95insnvNg5cAqeKuElCjxAv7RPAHVwac6+BXnKgkm8dK3gyMkwpFgOVw5f46D3V2k4wkyqTHOnb3Enu4D7O7aR1dHN7tb97BtWwsrt61i7t55jNv1GHfs/hq3dP8LN2y7ns/Xf4Hn9v6OE/ppzg6doaV9G607d9La1knLzl1sb+mipXU37V37iGoJiqaFomlc7rnM0RPHOXvhAucuXuHE2YscP32BEyfOEPL7sXJjYBQgm8S6dJazs2dQd+dXabzl8+z57ndYfdsX2Pjw/cT3tkN6FFcbQI8O4epFVC1Hf1QnrLn4YhZ+xSIUtykLahaaLigKz2IUpg2WTfjsGU53dZAZjXLu1BnW1m9g29adHDxwlKMHj7O3/QCbGrdSvbqaV1e8wt0rfsDN9Z/j+vX/kxsbb+Arm77KPZsf4O19kynvrGDRxmo2NG+gtXs3nfsO09Z1iA2bWlm8dDX79h0jHB7m0uVeuvfso72jgzNnzuDr9eG7EuDyucu0bd9B59atJC5dQr90geDG9ewa/zwrv/41qv/5elr+9evsvfcnrP7Xr1D7ja9xZsLbDNctZ3/5LHYuqmLUHyIeLzAYKxIYNfBFTYKKQ0i1KAupHgkG4EiBnS+QCvdzdFMjbYurOb6jlW0NG2nZvoPuvQc5dPg4He1drK/fTH19I02tW1ixZzn3197HnWu/xq31n+eGJdfzucpbuHPpt/hhzX38ou43zN1azvLmFTR2NtPUtYuN29vY1tLFxsbtrFqxgdMnejh5/BLbW9ppa+vg8L79+M6dx3/yLJcPHqa1fg2Nc+fSMWcuTa/8nkX3/og/3PwZKj55HVWfvJ6NX72LDd/6LpVf+CILPnszNV/6CjV33cXEO77M4vEvMeoLkkqZhEfyBEcMTx1THMKqTVlYNYkXvOEgEZipBJ2rVjHz8cd47bvfZfIvn2TDsuUMDQxw9uJFOju72LxpK8uXrWbxspW0du3kythlXur6Pfe3P8w3N3+Tu9Z8g29V3MXt797O7e/dwfem/ZAJG95jZuMfmLWunEVbaqndWMeWliZOnzrN8sUr2bvrGMcOXaCz4yD7O/fRvX0H57p3c2prM/uW1bL+1ddZ+MhjzPrBj5jy1X9l5h23M+vmzzL7un+m/KbPUfOtu2l46BGW/vAepn7mFqZ86iZmfeUO6n79K67s3Imb14knCoRH8/RrLiHVJah4smBZRDFJ5r2JEWHDWIYdlRWM/9LtPP7f/p53f/YAZ3d1YusFTpw6QUtzCw3rGlmybBUVS2tp2NzI6egZXut+i4daH+PO2q9xf8N9TOh4kzcaXuHeST/m3on38Lual5nUMJXnyp/n9wteYVbdNJZuqCQ42Edbaxut27vY33WMY3tPcWhnJ91r6tkxfx6rf/cylQ8+zB/uvItpX/oys7/xLVY9/hibnn6K2ocfYvMvnuTMrNkE1qxltG0X55atZMG9D7D4gZ9zaslS4seP4moq2C5qokA4phNQLHyKRTguCKimR0I672K7wptFx1LsrqzgrVtv56m//juqn3iS5IXLONkx2lrbWbe2kbqV65hXsYS5VYtYULWQqg2VPFT+c+6a+21un3ob35l+F0uPLeNw9DBbT25m8Y5qJtRM5I2l7zDurZ/z4Ov385tZTzKh5g0OBvdzvPco+w8f5NLJs5zcsYuGydNZ9exzVP34J8z/8jeYd8ttzPv8F5l5221UPfgQzRMm0L1wIeca1pE8dgQ5OgiZOBTGsEZGuNLcQmBnG87QMBQLYBrgCpS0jj+ax3/VRigp2mUR1SBdcHFcAcLGjg6x+b13efOmz/LcX/01Cx96hPTZ8xQUjQ3rN1FZWUNFxXJmzpnP+/PKmTJ9MhNmvcnj0/6dLz1/G7c+dTN3v/o9mi60MGwpZK0UQ1o/a7av4/W5b/GzF3/Gt3/1db756y/zwCt38+7yV2k60MCxs4cInD3N2smTefPrdzHti1+i/MbPUXnd56i44Rbm3vpFFt13P23TZ3Bq4yau7N9PZngQrAJSGAi3iLR1pFVE5MaQ+RwYRaRtIR0HgFi6QF80hz/h0Ke5+DQHn2pS1q/ppAoutov3NTY8SPPbb/L29dfx/Mc/xvz7f0byzFli4Qir1qxjbnkV06bPYfqM2cx4fybTp0+lvHoOW480U75lPhNXTqK2YwX+VD95aeIIB72Qp2vvHibOnsZTbzzDPU98nx+P+yLfu+d67r3vs7zz1i84tr8D7coVusoXUv79e3j3k9cz+1OfZfZNX2DGl77Kmqeepq9pK9k+P4XRKMVkAtvI47gmjrRxpI3rWriOiRQ2CMcTXYSLcAUuEE0VCMTy+OM2PtUlEHfxqzZlIU0nWRJVpO1ANErnxAlM+NT/5PmPl1H+s/uInz1DqKeH2lX1zFtQRd3KehZXL6ViQQWVFZXs3t+Nlk8SLagMpEfQjBQFYWE4NpZpY+YNujq6mfuH+UyZPoWJb4/nyR9/iUfv+AcevvVvGf+Tr3OiZRv5Hj9nauuZ96P7mXjT55j8uS8w9a7vUfHkf7J31WqKo1GwbK97O56V6bgWtrCxpYsjXFzhIoRzDa50cYS8RkJQyRNQSySUdIWysKqTKDgYLghHQDxO99T3ePeGT/Lcx8uYc/+9aGdO4zt3nhW1qykvr+DgwWNsa9rOypqV1CyvYWBogLylY0gLQxiY0vQUaSFwHYmRK7KrpY3aBVXMee1N5v76V4y/+VO89un/zms3/gMT7rydtrkL6N25m9b5i5g67jHe+8EPmPtvjzHrqadZOeN9ju5ooxDTwLTBtkG4SCRCeqKri0RID1KKaxB4ypJbktdCaoHgH5PQrxRI5B2KAoTrQipB98zJTPj0P/HsX5Yx+74fo54+Sd/JM6xcXsfcOQs4d+Yi3V37WF1Xz/LltfT3RygYOqZjYjkmtmvhui6u4yBtiZkzaGtuZvXCSqrHv8Ib//oNJn/q08z+p+uYft11vHHjZyn/t6fYNLeKqvem8P7Lv6f8tZepnDyBmW+9xfL5CzjQ3kEmpnjKqZSewi0EQgrkn5DyPyLrX5XX/hwJEVUnmXcwBAjXgVSS7plTmPDpf+L5v/oL3v/pj1BPneDy0RPULl3JwnlVXL7Qx9FDJ1mzaj21tSvw+XwYpoFlGdi2+YHq7LhIS6DnCmxt2kz9okVU/HY8479wOxNu/CxTPnUjk/7lcyz6+aO0Vyzhwt5D1C1ZxvTJE1lSOY8VSxZTWb6Q2sXLObB7D/FYDGGXFGbA4QNJsCQt/j9BSfkukfAnh8OAopMsOBiyREI6SffMqUz49PW88Im/ZPa9P0I9eYKzB4+ypHo5Cxcswt8X5uypi6xasZaa5XUEAkFs2/XeylVRQkhkaWdmLJNjS9MW1tQsZePcclomT2f69+5mxne+x7rnX0Dp3oMxNEpqNMamLVuoWFxNw8ZG2ts7WbF8FUuqa9i3Zz+jo1FM08ayHWzp7TmID7/y/1MSImrBIwEQjg3ZDN3vz+CdG27ghU98glk/+iHK0WOc2HeQ6kW1VFfVEAmPcvF8H6tXrqNmWR19fX5Mx8WRElsKLNfBtl3vIRzIJLJs3dbCiuU1tK5bh3LmDOunTaP6lZdpq1kOyRQ4NmOZNB0d7ayqX8OO1laOHT3B+vpNLFuygj17DjAaVXGEtzlkOBJblLq65INtsY8QIEvS//+WBJ3U1Z7g2DCWZfesWbz56Rt59hN/zfQf/IDRo0c51LWHykU1LKtdSzg0wsVzfayp20DN8lVcutyL6QpMIbytOCmxS5sw2JBN5NjS1MLK2tXsbm0jMRhhy6o6Fr4/nU3r6sln0riORSaTpLt7NxsaN7J79x7On7vMtqYd1CyvY8/eQ4yMlkhwJEXDxjAdbEfgXt2fk5KPThDewdXtwj8mwa86BDWXsoji9QRTgnRtKBTZNWceL934WZ78L3/LlB//hLPNLezp2M26jVtZuaaRvr4IRw+dprmpjY72bk6dPk8wMkTRdSk4DlapUiQIC0aHVLZuaWP1qgY6O3aTUFS2bdpMVUUF69Y3MDw8ggRy2SxdnR1s3riZvXsP0OcL09q+m9qV9XR17WNwIHptonNdieMILNPGsRykW+oW3hWleam0gpSe5+oSGVTtkk+Di1+xSz0h71B0wLYsyBVom1/Bszd/nkf/29/z0re/w+L3JtGyaRutHXtZvLSOA/uP07y1jcXVK9je3EZzcyubNm+jf2CYsXyBXEEnky2QG9PJJPNcvuCns+Mgba3dtLd1cujQEVavXsO69Y1saNxCR0c3A5EhBgeH2du9h9aWVg4eOILfH2FHezer6xvZv/8IgwOjuI4nA7quxLFdLNPCNkyEaePaFsK1PWkMgcD17ITS/DF61U5QLG84aN6QKBtUdJJjNoaLt42VTNNRU8dL3/8h/3HLF3jjoXFUTZ7G+pX1NDY0sWpVA5279rO9uYONjc20bG+neWsrLc2tXDh/hUh4iHBwgHBwkKAvwsVzfexo6aRhbRMrV6xj6ZIaqhctYdbsuSyoXMTCymVULa6lc/cBjh47zZHDxzl76jwXz/Vw5WKIpk3tNG3eyeULvYwOK2QzBSzLxXEEovTmpSNwLQfbNLFMHcf2NooFLi4Ch4/aCQHV+uicMBgzSI25WAJM08IeK5AODhDef4S+jk58h4/gP3Me/0UfPRd99F4O0tsTpqcnjM83gK8vTDAwQNDfT9gfod8XIdwbJuyL0HPJz4XzfRw5fJoDe4/RuqOT5m07aWnZScuOdra2tNHU3M6WbR1sa+lk67Y2Onft4/IFPz2XQhzce5Kq+bXULK3n9IlznDlzgUsXexkd0chm8ui6gWF4O1FIiXAcHNvEsg0sx/BMaby9SOcaCTpB7YOJ0a/YlA1oJumCwBHgOmDqDma2iJPI4GhJzGSGfDLLWDJHNp0nk8yTiGdJp3XUeI54PENcy6ApSbTROKlYCmVQITqoMByJMTSkMTSoErjST78vQr8/gq83SE+vj4sXezl/vo/Tp3vZv+8UO7btZnPjDtp3dtPVvp/mpk5WLmtg1YoNbNvWxs4du9i39zA+X4hUKkvRsLBs7+PPcR2EEKXtfhvTtjBsi6LtYIk/Gg6qhV8TBK8Oh0jcJKMLLAccByxTYpsS6XiOBsL2IF2JbQqEKzFMF8uCQlFQ0G0MU6AXLEzdxtQdsqk82bTOWM4glTVQ1SyZpM5YQieleoSlkmNo8QyjoylGhlMMR9JEghq+3mF8vYP0+SJc6YsQDI7S368wOKQyPKKiaGkyOQPTEVhCYrlXN1w9K1JKWTKVJY6UHgF/tET6YyZ9ioP/2reDZpDMuTgljxDHBtspeY+IDxRoUfJUcT60CjklU8AtOXhc8yBxJVZpHS863pKmm15Pc0yJnnco6BZZ3SRbcMjrEj0vyY1JMlmHVM4kXbRIFw0KpqBQFOiGRDcFhi0pOvKaQ8lVg0l8aNVwRclAKsEuedtEUzphTSegWvTGbHyK7Q0Hv2IQTVtk8oJM1iaVd0nmBfG8Q8aUpPMumZwgXbBJ5ExSus1YwSWZMcjkHcZ0QTpnk8zZZIoOibxF2hBkDUlad9GyNmldksgL0nlJZswlmTXJFV2SBZv4mElizCWVFmSykMxJ1LyNolvEDZtkwSWRs0nmHZJ5h7Tukiw4JIsu6aJDpuiQ0i0yRYus7iFTsMnkbdI5k0zeIp0zyRqCgYROSCkSVB36FAef4rkClgXiNmHNIKLohGMFgjGdcNymL1YkGLfojzv0qyaRuEW/ZhCKFYioBkOaTTiqM6hZDKgmoViRfq1YSk2CMZ1+zcsPxnTCqkkwVmQ4buEbUFm7pZWuQ6cZ1goMKAUGSy53Qc3BpxqEUw5+VScQy9OvemVHNJ1+tUBE0xmIFwmrecJqnn6tQL+aJ6LkGVALDGgF+mM5+mNjhJUcEbVISC3gV3SCcZtAXHjGkualZT7VxqcY+GNFwiVnx56YRSAh6VMFvYpT0ui9rjOQBl/MIqi5hOLe5NI7ahCKe86eVyebUFxcu8dfYjyUcPCN5Dl9OcLNt32DZ19+h1jaoV8p0jeq44vZBBLQp7r4VJdgwiUYLz2fauJXTXxKyaFTNb0GaRahhLe7HIzbXh2KcS3v6n1+1SSgmfTFTPoU+xoJgbikLKAJgopFSDEJqxYBxaYvZtMXc+mNuoQSlLxTXXyqSU9Upyeq06cY+DULn2ri1yx6Y8Vrx72xIr2xIsGEQyBue9eqJn0xHd9IlvFvTKWs7L/ymVvv5PDJHoYTpvcCYqZHcELgUyz6oiZ+1cCnmPTGLIIJ+ZG32BvzLL8+xcGnuoSSXMvviXq2gE/1SPEpRfpixVL5kmAC7z5NUBZUBSHVIhAtjZeYSSQhCGqCvqhFIGrgH9Xpixbxa16DA4lSo+MmPtUkkLAIxG18mkFvrEgg4ZFx7VjzvEnDqkHX4fP8/XU3U1b2N3zs43/HTx94AiXlDa1grEhQMT/kNWsS1kz8MYNgyQW3T3HojXld2iNFEkpCIC7oiVqlc14j/ZrAp5Q8XuMGQaWIXzEIag6B0lDwekLMIhwrMhQ3CEXHiCgGwWiRsOaN4UjMIBLTicRNgrECIcUgpHhjvF8z8I8WPE/UWPFavudlaly7PqwWGVAt+vqTvPT6VD72iX/gYx//e8r+4m/450/dSvPO/YzEbQYVi/6oSTBq0DeUIxgrMqhaRFSDQFSnX7NK9VqEFK9u/2iBYKxIuOSS7D2HUXqpBsFYEf/oGP7RLCGlQFg16YsV6Yua13yhy4KqyUjKQs3ajCR1BtU8g2qekUQRNeugZi2UtEksVUTL2ihJk0ROoKZtlIyFmrZQsw5a2iaeE6hpC23MIRr37o8lDGJJAy1jc74nwvd/9AAvvfI2r772Fi+9/DoPPvg4z7/4BrG4TixpomYFo0mL4bjBsFagfyTNkJJHSZfqythEkwZq2iaRk2gZm2iySDRpoGUcEmMuatoiljKJpbxnTeYlsaxNNGMzknbo1yz8ioFfsUofUKVdaQGs29jEZ275En/1t/+Dxm070R3v290U4EhJ0a4Ve1kAAAhYSURBVBYIoGDYmJaL4bhYtsASYNneecv28l0BpuvZEqbjYrmeaS6B7FiWtWtXs2tXO8VikS1bmxgZjSGAZE5n1oJKyv7iY/xff/XXlH38E9x621fYvrMDANP2hFPbkRiWwHbdEiSOANsVGIaLabsYloe85e21FgTEcg79cc853RczvU/psJYna0q09BgTJk2mpbWD9t3dtHftRkkk2b2nm8HBflRVpaurC03TOHLkCHv27KGxsZFt27aRy+Xw+/20trbS1NRETU0N0WgUKSXxeJxNWzazas1qQv1hiqbO3n1dvP3Wa7z//lQaNtRz993fo2NXG5QkMwGMKDHemzKZ8oULAMjn8nR372X16nouXLiEEBAMhlm/fgMNDY2EQv0oisbhw0dpa2unsXETBw4coGlrMy1tXYxoY1iAkjUIRnOENdNbPRSLsoiWI2sJYokUv/zVk3z1zq+x79BBBJLMWIann/lPdnXu5OKlC4z7+SNc6enjnQnv8buXfs/O1nYeefRxOnZ1sWTpcr79ne/R2tbBY4//OxWV1SSSaV747XhqV9RRt2oVDzzwAJFIhPEvvsAdX7mdNavr6N7dybhx4zh58uQ1rUACkYEh3ps4mXkLFgJQt3oVP7nvpyxaspiJkyfR2t7Grq5OGho38NY7b7OwsoKu7t08+/xz1K1exYz3Z/LLXz3J+oYNvPr62zS3dqE7EM/ZRDRvrgioZmk4aDnSug3A1uZmbvvy7ZSVlVFZXc3QyBDPP/8M3d0d+IM+xj3ycy5cvMSkKZNYXrMCx3FYvWYt78+exYKFlfzupZcoGhYXr1zinnt/Smd3F/98/Q0MDA2Sz+d55eWX2da0lVd//wo/H/cQ+/buIRwK8eILvyUej2MYxjW5cHQ0ysSJk6ioqCKVSvHepIn8/tVXOHbiOJOnTmFdw3pGY1HmzivnM//yL7w78T3adnUwYeJ7nL1wntaOdioXVROODLCwchFNza3kijbxMZtwdIygUvRiNjSHsoimk9FdCkWHQsHg7NkLvPDb3/H0M89x7OQJnv7N0+zd082lKxd5+NGHOXfpAm+++xbVS5eQM/Isra1hzoK5zK+sYPyrL5HIptl/+AD33n8fu/Z08sUv387QyCDxuMpzzzxN87Ym3nj9VR5/7BH279tDOBTgxReeR1U81UgKb8tseHiIiRPfpbKyimw2y2tvvsmdd32TdydPZX5FFctXrOS5F8ezfuMmNjZtpXLxEpp3tvLOxEmcPn+B7a1tzJm/gGBkgMqqRWzZup2CaZHSXSJqnrDqBawENYeyAbWIbsGZc5d488132LfvEJs2NzN12gz8gRCTp0xjy+Yt1K5cyU9/9jOu9PYwYdIk/u2JJzh/+RJPPfM0TdubWbRkMd/49rc4efoUb06YwKzZsxmORXn0scfY2dZKd3c39//0fsKhMK+8/AqPP/oYB/btx9/n47lnniPoC5T8pTz9eGBggMmTJ1NdXQ1A9eKljHv0Mbq697Kwqor6dQ3MKZ/Hxi1NTJ42jUlTprKzrYNJU6dz9vxFWjt2MW9BBYFgmIrKarZu30nesEnkHYYSXgCIX/0QCZm8C0BLSxvjxj3GAw/+nOMnzgJw+MhRxo17hJqaFUydOp3h4VEmvDuRyZOm8sR//JI5c8rJF4osX17Lb55+lt/+djzPv/Ai2ewYAMlkmmeeeY4HHngYVY1TLJosW1bLa6++xd49BynkdaZMnsG0KdNxbeHtggGJRIqGhka2bNkKQHZsjMrqKh56+CE6OztxhWDN2noefPBBnnjiCerq6jh0+BDr1q8jHA5z4uRJtm3bhhaPs7O1jROnz2IJSSJn0K+MebaEatKnWJQNaAUyeQfLE2c+8hNS/smdnfLy+TQ2bsIwzGt5mzZtZtasP2AY1rW8D0tg8EH5hmGyft1Gujr3frRgCVJIj4yP3Cc9RfnDl0ov/3/3u3qNxFvutbEig/EC/ZpJb1QnEHcoG9BypPOeb7PjOJ6/MJ5sbtoujusggaJhYNs2juMpOFDyhb6q5jgOjutcy7dtb7K9el6WxE8XSV7XWbduA917PBJs18F2HKSUOLYBuEjpIqSLI717XNeDkB65tuN+hAhXeEKKK0SJfE9bsGwHx5XXAlHiOYNQNOtZl6XIurIBrUAy76LbXoSI7giMkoFkiVLUiCNwpXfsSijarqf/Czzx5EPRLpYjKTqeXGdJ79gUYAuBJSWmEOSKRVatW0/77m4v0kZIz4VQgiWE9wKEpwpZwjtvS8/4Mt2r13lv1pFgOlyLcjFdT9ixr+Z/qB26C0rWWyJDiokvZuNXHcoGNIvRjEDLSxIFcQ3J/IdQ8JDQveNraSk/Xro+/sfXfeg4kbdJFhwSBZuRZJblaxpo7thNynRQ8wbxgk284BC/ev01uMQLrvdceqm8wh+l+h/l5T96HM9JkgVJoiAZTglCMZOQYpc++wVloahBv2oTUkxC0SLhqE44li+lBSKxAmHFQ0gpemF5fyYN/r+mOv2KTr9SoC+SYF71Guo3tzOUMLwNkZhXfkgxPwQvgq2/JPh4YYH/X1EshRuahBWbUMz04ikVm4DqfhAXGYgZpU/Yq/C+ykKqQb/iLSdhxSKkuoQV90+moZjj+QX+mTQYE6WAUIfeSI7yRRuo37SXQU0QjFpeYFZUEIjKD8ElEHUJRh1CMfv/GMGYSSCq4x/VS8GsXrCHX/EigMsCmoNfsbxYQcUTNgKKQShmElS9N+IRJAip/P+EpF+T9A4VmbtkI2ua9jGYxAvPUyR+VeJXPkBQgaAiCSqSkOohrPyZVJWEVEFQEYRipVTx8sKqQ0gttUezCccFQdWLhPMrLv8L2YSibyLicfQAAAAASUVORK5CYII=;" vertex="1" parent="1">
          <mxGeometry x="1500" y="-370" width="65" height="60" as="geometry" />
        </mxCell>
        <mxCell id="T9Dtz7ng8269gEaztBPX-73" value="&lt;div&gt;Send Notification&lt;/div&gt;&lt;div&gt;Details &lt;br&gt;&lt;/div&gt;&lt;div&gt;&lt;br&gt;&lt;/div&gt;&lt;div&gt;&lt;br&gt;&lt;/div&gt;" style="text;html=1;align=center;verticalAlign=middle;resizable=0;points=[];autosize=1;" vertex="1" parent="1">
          <mxGeometry x="1410" y="-135" width="110" height="60" as="geometry" />
        </mxCell>
        <mxCell id="T9Dtz7ng8269gEaztBPX-74" value="" style="endArrow=classic;html=1;entryX=0.023;entryY=0.566;entryDx=0;entryDy=0;entryPerimeter=0;" edge="1" parent="1" target="T9Dtz7ng8269gEaztBPX-60">
          <mxGeometry width="50" height="50" relative="1" as="geometry">
            <mxPoint x="690" y="-272" as="sourcePoint" />
            <mxPoint x="740" y="-300" as="targetPoint" />
          </mxGeometry>
        </mxCell>
      </root>
    </mxGraphModel>
  </diagram>
</mxfile>
